<?xml version="1.0" encoding="UTF-8"?>
<svg width="64" height="64" viewBox="0 0 64 64" fill="none" xmlns="http://www.w3.org/2000/svg" role="img" aria-label="Travel Agency icon">
  <title>Travel Agency Icon</title>
  <g stroke="currentColor" stroke-width="2.5" stroke-linecap="round" stroke-linejoin="round">
    <!-- pin -->
    <path d="M32 6c-10.5 0-19 8.5-19 19 0 12.7 19 33 19 33s19-20.3 19-33c0-10.5-8.5-19-19-19z"/>
    <circle cx="32" cy="25" r="8"/>
    <!-- airplane simplified -->
    <g transform="translate(32,25) rotate(-20) translate(-32,-25)">
      <path d="M17 26l15-3 7-9 2 2-6 10 9 4-2 2-9-2-7 6-2-1 3-7-11 1-3-3 14-3z" fill="currentColor" stroke="none"/>
    </g>
  </g>
</svg>
